<?xml version="1.0" encoding="iso-8859-1"?>
<!-- Uploaded to: SVG Repo, www.svgrepo.com, Generator: SVG Repo Mixer Tools -->
<svg version="1.1" id="Layer_1" xmlns="http://www.w3.org/2000/svg" xmlns:xlink="http://www.w3.org/1999/xlink" 
	 viewBox="0 0 512 512" xml:space="preserve">
<g>
	<g>
		<path d="M343.506,101.209c-8.298-40.712-44.38-71.442-87.506-71.442s-79.209,30.729-87.506,71.442H0v160.744
			c0,16.183,4.348,31.361,11.907,44.464v175.815h488.186V306.418C507.652,293.314,512,278.136,512,261.953V101.209H343.506z
			 M256,65.488c23.284,0,43.135,14.933,50.509,35.721H205.491C212.863,80.421,232.716,65.488,256,65.488z M464.372,446.512H47.628
			v-105.61c12.45,6.599,26.629,10.354,41.674,10.354v29.767h35.721v-29.767h261.953v29.767h35.721v-29.767
			c15.046,0,29.224-3.755,41.674-10.354V446.512z M476.279,261.953c0,29.545-24.037,53.581-53.581,53.581v-29.767h-35.721v29.767
			H125.023v-29.767H89.302v29.767c-29.545,0-53.581-24.037-53.581-53.581V136.93h440.558V261.953z"/>
	</g>
</g>
<g>
	<g>
		<path d="M178.605,172.651v107.163h154.791V172.651H178.605z M297.674,244.093h-83.349v-35.721h83.349V244.093z"/>
	</g>
</g>
</svg>